<svg width="108" height="109" viewBox="0 0 108 109" fill="none" xmlns="http://www.w3.org/2000/svg">
<rect y="0.5" width="108" height="108" rx="54" fill="#F6F8FA"/>
<rect x="25.7218" y="29.7847" width="48.1432" height="60.7297" rx="3.05155" fill="#E2E4E9" stroke="#868C98" stroke-miterlimit="10"/>
<path d="M31.0134 27.0505V77.5433C31.0134 81.9691 34.5986 85.5542 39.0244 85.5542H73.6567C76.6963 85.5542 79.1569 83.0936 79.1569 80.054V27.0505C79.1569 25.8202 78.1604 24.8237 76.9301 24.8237H33.2402C32.0099 24.8237 31.0134 25.8202 31.0134 27.0505Z" fill="white" stroke="#868C98" stroke-miterlimit="10"/>
<rect x="45.2952" y="21.6729" width="19.5791" height="6.30367" rx="1.52577" fill="#CDD0D5" stroke="#868C98" stroke-miterlimit="10"/>
<path d="M51.0811 19.1082C51.0811 16.8916 52.878 15.0947 55.0946 15.0947C57.3112 15.0947 59.1081 16.8916 59.1081 19.1082V21.6623H51.0811V19.1082Z" fill="#CDD0D5" stroke="#868C98" stroke-miterlimit="10"/>
<circle cx="55.0846" cy="18.7368" r="1.8179" fill="white"/>
<path d="M79.4388 29.7847H81.3893C83.0746 29.7847 84.4408 31.1509 84.4408 32.8362V41.8502C84.4408 43.5356 83.0746 44.9018 81.3893 44.9018H79.4388V29.7847Z" fill="#E2E4E9" stroke="#868C98" stroke-miterlimit="10"/>
<path d="M79.4388 64.6875H81.3893C83.0746 64.6875 84.4408 66.0537 84.4408 67.739V76.7531C84.4408 78.4384 83.0746 79.8046 81.3893 79.8046H79.4388V64.6875Z" fill="#E2E4E9" stroke="#868C98" stroke-miterlimit="10"/>
<path d="M43.8114 43.8239H40.2407" stroke="#868C98" stroke-linecap="round" stroke-linejoin="round"/>
<path fill-rule="evenodd" clip-rule="evenodd" d="M39.9675 43.6488C38.9106 42.9019 38.2767 41.598 38.4999 40.1626C38.7415 38.6111 40.0347 37.3727 41.5945 37.19C43.7596 36.9358 45.5967 38.6212 45.5967 40.7351C45.5967 41.9402 44.998 43.0037 44.0833 43.65C43.9191 43.766 43.8114 43.9458 43.8114 44.1469V45.7936C43.8114 46.6155 43.1454 47.2814 42.3236 47.2814H41.7284C40.9066 47.2814 40.2406 46.6155 40.2406 45.7936V44.1493C40.2406 43.9463 40.1323 43.7654 39.9675 43.6488Z" stroke="#868C98" stroke-linecap="round" stroke-linejoin="round"/>
<path d="M46.7871 37.7595L47.4953 37.0513" stroke="#868C98" stroke-linecap="round" stroke-linejoin="round"/>
<path d="M37.2651 43.7104L36.5569 44.4186" stroke="#868C98" stroke-linecap="round" stroke-linejoin="round"/>
<path d="M37.86 37.1642L37.1519 36.4561" stroke="#868C98" stroke-linecap="round" stroke-linejoin="round"/>
<path d="M46.7871 43.7104L47.4953 44.4186" stroke="#868C98" stroke-linecap="round" stroke-linejoin="round"/>
<path d="M47.3821 40.7351H48.3878" stroke="#868C98" stroke-linecap="round" stroke-linejoin="round"/>
<path d="M35.6642 40.7351H36.6699" stroke="#868C98" stroke-linecap="round" stroke-linejoin="round"/>
<path d="M40.2407 45.4963H43.7341" stroke="#868C98" stroke-linecap="round" stroke-linejoin="round"/>
<rect x="51.9829" y="37.9409" width="21.2561" height="2.70099" rx="0.762887" fill="#E2E4E9"/>
<rect x="51.9829" y="43.2085" width="12.2658" height="2.70099" rx="0.762887" fill="#E2E4E9"/>
<path d="M39.0243 85.554L76.9523 85.5374C79.5688 85.5374 81.6899 83.4219 81.6899 80.8054C81.6899 78.4839 80.0086 76.5466 77.7985 76.1513L77.6482 76.1235L40.6387 69.688C44.2962 70.434 47.0408 73.6629 47.0408 77.5431C47.0408 81.9689 43.4556 85.554 39.0243 85.554Z" fill="#CDD0D5" stroke="#868C98" stroke-miterlimit="10"/>
<ellipse cx="79.4389" cy="25.838" rx="8.94596" ry="8.94596" fill="#E2E4E9" stroke="#868C98" stroke-miterlimit="10"/>
<path fill-rule="evenodd" clip-rule="evenodd" d="M73.6936 32.6954C73.9445 29.9699 76.0908 27.7933 78.8025 27.4957C77.3578 27.2011 76.2707 25.9232 76.2707 24.3914C76.2707 22.6416 77.6892 21.2231 79.439 21.2231C81.1888 21.2231 82.6073 22.6416 82.6073 24.3914C82.6073 25.9232 81.5203 27.2011 80.0755 27.4957C82.7872 27.7933 84.9336 29.9698 85.1846 32.6953C83.6303 33.9989 81.6263 34.7839 79.439 34.7839C77.2518 34.7839 75.2478 33.999 73.6936 32.6954Z" fill="#868C98"/>
<path d="M78.8025 27.4957L78.8571 27.9928C79.1019 27.9659 79.2907 27.7647 79.302 27.5187C79.3133 27.2727 79.1438 27.055 78.9024 27.0058L78.8025 27.4957ZM73.6936 32.6954L73.1957 32.6496C73.1807 32.8129 73.2467 32.9731 73.3723 33.0785L73.6936 32.6954ZM80.0755 27.4957L79.9756 27.0058C79.7343 27.055 79.5648 27.2727 79.5761 27.5187C79.5874 27.7647 79.7762 27.9659 80.021 27.9927L80.0755 27.4957ZM85.1846 32.6953L85.5059 33.0784C85.6315 32.973 85.6975 32.8127 85.6824 32.6494L85.1846 32.6953ZM78.748 26.9987C75.8005 27.3222 73.4684 29.687 73.1957 32.6496L74.1915 32.7412C74.4206 30.2528 76.3812 28.2645 78.8571 27.9928L78.748 26.9987ZM75.7707 24.3914C75.7707 26.1655 77.0297 27.6445 78.7026 27.9857L78.9024 27.0058C77.6859 26.7577 76.7707 25.6809 76.7707 24.3914H75.7707ZM79.439 20.7231C77.4131 20.7231 75.7707 22.3655 75.7707 24.3914H76.7707C76.7707 22.9178 77.9654 21.7231 79.439 21.7231V20.7231ZM83.1073 24.3914C83.1073 22.3655 81.4649 20.7231 79.439 20.7231V21.7231C80.9126 21.7231 82.1073 22.9178 82.1073 24.3914H83.1073ZM80.1755 27.9856C81.8484 27.6444 83.1073 26.1655 83.1073 24.3914H82.1073C82.1073 25.6809 81.1921 26.7577 79.9756 27.0058L80.1755 27.9856ZM85.6824 32.6494C85.4097 29.6869 83.0776 27.3221 80.1301 26.9987L80.021 27.9927C82.4969 28.2644 84.4575 30.2527 84.6867 32.7411L85.6824 32.6494ZM84.8632 32.3122C83.3956 33.5431 81.5045 34.2839 79.439 34.2839V35.2839C81.7481 35.2839 83.8649 34.4547 85.5059 33.0784L84.8632 32.3122ZM79.439 34.2839C77.3736 34.2839 75.4825 33.5432 74.0149 32.3123L73.3723 33.0785C75.0132 34.4548 77.1299 35.2839 79.439 35.2839V34.2839Z" fill="#868C98"/>
<circle cx="28.5606" cy="68.5231" r="8.94596" fill="white" stroke="#868C98" stroke-miterlimit="10"/>
<path fill-rule="evenodd" clip-rule="evenodd" d="M22.8151 75.3801C23.066 72.6549 25.2119 70.4786 27.9232 70.1806C26.4788 69.8857 25.3922 68.608 25.3922 67.0765C25.3922 65.3267 26.8107 63.9082 28.5604 63.9082C30.3102 63.9082 31.7287 65.3267 31.7287 67.0765C31.7287 68.608 30.6421 69.8857 29.1977 70.1806C31.9091 70.4785 34.0551 72.655 34.306 75.3802C32.7518 76.6838 30.7479 77.4687 28.5606 77.4687C26.3733 77.4687 24.3693 76.6837 22.8151 75.3801Z" fill="#868C98"/>
<path d="M27.9232 70.1806L27.9778 70.6777C28.2226 70.6508 28.4113 70.4496 28.4227 70.2036C28.434 69.9576 28.2645 69.74 28.0232 69.6908L27.9232 70.1806ZM22.8151 75.3801L22.3172 75.3342C22.3021 75.4975 22.3681 75.6578 22.4937 75.7631L22.8151 75.3801ZM29.1977 70.1806L29.0977 69.6907C28.8564 69.74 28.6869 69.9576 28.6983 70.2036C28.7096 70.4496 28.8984 70.6507 29.1431 70.6776L29.1977 70.1806ZM34.306 75.3802L34.6273 75.7633C34.7529 75.6579 34.8189 75.4977 34.8039 75.3344L34.306 75.3802ZM27.8686 69.6836C24.9215 70.0075 22.5899 72.372 22.3172 75.3342L23.313 75.4259C23.5421 72.9378 25.5023 70.9497 27.9778 70.6777L27.8686 69.6836ZM24.8922 67.0765C24.8922 68.8503 26.1507 70.329 27.8232 70.6705L28.0232 69.6908C26.807 69.4424 25.8922 68.3657 25.8922 67.0765H24.8922ZM28.5604 63.4082C26.5345 63.4082 24.8922 65.0505 24.8922 67.0765H25.8922C25.8922 65.6028 27.0868 64.4082 28.5604 64.4082V63.4082ZM32.2287 67.0765C32.2287 65.0505 30.5864 63.4082 28.5604 63.4082V64.4082C30.0341 64.4082 31.2287 65.6028 31.2287 67.0765H32.2287ZM29.2978 70.6705C30.9703 70.329 32.2287 68.8502 32.2287 67.0765H31.2287C31.2287 68.3657 30.3139 69.4424 29.0977 69.6907L29.2978 70.6705ZM34.8039 75.3344C34.5312 72.3721 32.1995 70.0074 29.2523 69.6836L29.1431 70.6776C31.6187 70.9496 33.5791 72.9378 33.8081 75.426L34.8039 75.3344ZM33.9847 74.9971C32.5171 76.228 30.626 76.9687 28.5606 76.9687V77.9687C30.8697 77.9687 32.9864 77.1396 34.6273 75.7633L33.9847 74.9971ZM28.5606 76.9687C26.4951 76.9687 24.604 76.2279 23.1364 74.997L22.4937 75.7631C24.1347 77.1395 26.2515 77.9687 28.5606 77.9687V76.9687Z" fill="#868C98"/>
<path d="M16.6869 34.6084C16.6869 34.6084 12.3086 34.6233 12.3086 38.9867C12.3086 34.6233 7.93018 34.6084 7.93018 34.6084C7.93018 34.6084 12.3086 34.5934 12.3086 30.23C12.3086 34.5934 16.6869 34.6084 16.6869 34.6084Z" fill="white" stroke="#868C98" stroke-linecap="round" stroke-linejoin="round"/>
<path d="M102.993 70.0923C102.993 70.0923 98.6143 70.1072 98.6143 74.4706C98.6143 70.1072 94.236 70.0923 94.236 70.0923C94.236 70.0923 98.6143 70.0773 98.6143 65.7139C98.6143 70.0773 102.993 70.0923 102.993 70.0923Z" fill="white" stroke="#868C98" stroke-linecap="round" stroke-linejoin="round"/>
<circle cx="42.8684" cy="58.9381" r="2.48986" fill="#E2E4E9"/>
<circle cx="55.0851" cy="58.9381" r="2.48986" fill="#E2E4E9"/>
<ellipse cx="67.302" cy="58.9381" rx="2.48986" ry="2.48986" fill="#E2E4E9"/>
</svg>
